# xmcd CD database file
#
# Track frame offsets:
#	150
#	11308
#	25276
#	40215
#	50848
#	65676
#	80032
#	92450
#	104758
#	117909
#	130268
#	142269
#	156033
#	169097
#	181315
#
# Disc length: 2571 seconds
#
# Revision: 0
# Processed by: cddbd v1.5.2PL0 Copyright (c) Steve Scherf et al.
# Submitted via: CDex 1.50
#
DISCID=d10a090f
DTITLE=Eddie Arnold - Cattle Call
DYEAR=2005
DGENRE=Country
TTITLE0=It's A Sin
TTITLE1=The Cattle Call
TTITLE2=Many Tears Ago
TTITLE3=Wondering What To Do
TTITLE4=Rocking Alone in the Old Rocking Chair
TTITLE5=I'm Thinking Tonight of My Blue Eyes
TTITLE6=I Walk Alone
TTITLE7=Texarkana Baby
TTITLE8=Anytime
TTITLE9=I'll Hold You In My Heart
TTITLE10=It Makes No Difference Now
TTITLE11=Molly Darling
TTITLE12=Seven Years With the Wrong Man
TTITLE13=I Couldn't Believe It Was True
TTITLE14=Bouquet of Roses
EXTD=YEAR: 2005
EXTT0=
EXTT1=
EXTT2=
EXTT3=
EXTT4=
EXTT5=
EXTT6=
EXTT7=
EXTT8=
EXTT9=
EXTT10=
EXTT11=
EXTT12=
EXTT13=
EXTT14=
PLAYORDER=
